<?xml version="1.0" encoding="UTF-8" standalone="no"?>
<svg xmlns="http://www.w3.org/2000/svg" viewBox="0 0 45 45" width="45" height="45">
  <g stroke="#000000" stroke-width="1.5" stroke-linecap="round" stroke-linejoin="round" fill-rule="evenodd">
    <!-- Stem and dome shape -->
    <path d="M 22.5,11.5 C 22.5,7 22.5,5 22.5,5 L 19.5,5 C 19.5,5 22.5,3 25.5,5 L 22.5,5 C 22.5,5 22.5,7 22.5,11.5 z" fill="#000000"/>
    <!-- Wider body — bell shape -->
    <path d="M 13,38 C 13,38 17,33 22.5,33 C 28,33 32,38 32,38 L 32,40 L 13,40 L 13,38 z" fill="#000000"/>
    <!-- Main bulb -->
    <path d="M 13,33 C 13,33 14,18 22.5,18 C 31,18 32,33 32,33 L 13,33 z" fill="#000000"/>
    <!-- Concentric rings (light on dark) -->
    <circle cx="22.5" cy="26" r="6.5" fill="none" stroke="#FFFFFF" stroke-width="1.2"/>
    <circle cx="22.5" cy="26" r="4.5" fill="none" stroke="#FFFFFF" stroke-width="1"/>
    <circle cx="22.5" cy="26" r="2.5" fill="none" stroke="#FFFFFF" stroke-width="0.9"/>
    <circle cx="22.5" cy="26" r="1.2" fill="#FFFFFF"/>
    <!-- Base -->
    <rect x="11" y="40" width="23" height="3" fill="#000000"/>
  </g>
</svg>
