<?xml version="1.0" encoding="UTF-8" standalone="no"?>
<svg xmlns="http://www.w3.org/2000/svg" viewBox="0 0 45 45" width="45" height="45">
  <!-- Outer ring -->
  <circle cx="22.5" cy="22.5" r="14" fill="#1F0F08" stroke="#000000" stroke-width="2.2"/>

  <!-- Saw teeth -->
  <g fill="#8B6B4A" stroke="none" transform="translate(22.5, 22.5)">
    <polygon points="1.5,-7.5 1.5,-11 -1.5,-7.5" transform="rotate(0)"/>
    <polygon points="1.5,-7.5 1.5,-11 -1.5,-7.5" transform="rotate(36)"/>
    <polygon points="1.5,-7.5 1.5,-11 -1.5,-7.5" transform="rotate(72)"/>
    <polygon points="1.5,-7.5 1.5,-11 -1.5,-7.5" transform="rotate(108)"/>
    <polygon points="1.5,-7.5 1.5,-11 -1.5,-7.5" transform="rotate(144)"/>
    <polygon points="1.5,-7.5 1.5,-11 -1.5,-7.5" transform="rotate(180)"/>
    <polygon points="1.5,-7.5 1.5,-11 -1.5,-7.5" transform="rotate(216)"/>
    <polygon points="1.5,-7.5 1.5,-11 -1.5,-7.5" transform="rotate(252)"/>
    <polygon points="1.5,-7.5 1.5,-11 -1.5,-7.5" transform="rotate(288)"/>
    <polygon points="1.5,-7.5 1.5,-11 -1.5,-7.5" transform="rotate(324)"/>
  </g>

  <!-- Inner body ring -->
  <circle cx="22.5" cy="22.5" r="7.5" fill="none" stroke="#8B6B4A" stroke-width="1"/>

  <!-- Middle weak ring -->
  <circle cx="22.5" cy="22.5" r="3.5" fill="none" stroke="#8B6B4A" stroke-width="0.5"/>
</svg>
